<?xml version="1.0" encoding="iso-8859-1"?>
<!-- Generator: Adobe Illustrator 19.0.0, SVG Export Plug-In . SVG Version: 6.00 Build 0)  -->
<svg version="1.1" id="Capa_1" xmlns="http://www.w3.org/2000/svg" xmlns:xlink="http://www.w3.org/1999/xlink" x="0px" y="0px"
	 viewBox="0 0 512.014 512.014" style="enable-background:new 0 0 512.014 512.014;" xml:space="preserve">
<g>
	<g>
		<path d="M208.014,16.007c-114.688,0-208,78.944-208,176c0,39.808,15.68,77.92,44.48,108.896L4.686,340.711
			c-4.576,4.576-5.952,11.456-3.456,17.44c2.464,5.952,8.32,9.856,14.784,9.856h192c114.688,0,208-78.944,208-176
			S322.702,16.007,208.014,16.007z"/>
	</g>
</g>
<g>
	<g>
		<path d="M467.534,428.903c28.8-30.944,44.48-69.088,44.48-108.896c0-49.792-24.672-94.72-64.064-126.752
			c-0.8,114.112-108.064,206.752-239.936,206.752H118.99c34.496,56.896,104.416,96,185.024,96h192c6.464,0,12.32-3.904,14.784-9.888
			c2.464-5.984,1.088-12.864-3.456-17.44L467.534,428.903z"/>
	</g>
</g>
<g>
</g>
<g>
</g>
<g>
</g>
<g>
</g>
<g>
</g>
<g>
</g>
<g>
</g>
<g>
</g>
<g>
</g>
<g>
</g>
<g>
</g>
<g>
</g>
<g>
</g>
<g>
</g>
<g>
</g>
</svg>
