<svg id="color_1_" enable-background="new 0 0 24 24" height="512" viewBox="0 0 24 24" width="512" xmlns="http://www.w3.org/2000/svg"><path d="m21 2.75c0-1.519-1.231-2.75-2.75-2.75h-12.5c-1.519 0-2.75 1.231-2.75 2.75v18.5c0 1.519 1.231 2.75 2.75 2.75h12.5c1.518 0 2.75-1.232 2.75-2.75z" fill="#607d8b"/><path d="m16.25 9.75h-.75c-.078 0-.152-.037-.239-.148l-.902-1.015c-.333-.373-.809-.587-1.308-.587h-2.102c-.499 0-.975.214-1.308.587l-.942 1.063-.199.1h-.75c-.965 0-1.75.785-1.75 1.75v4.75c0 .965.785 1.75 1.75 1.75h8.5c.965 0 1.75-.785 1.75-1.75v-4.75c0-.965-.785-1.75-1.75-1.75z" fill="#fafafa"/><path d="m12 11c-1.379 0-2.5 1.122-2.5 2.5 0 1.379 1.121 2.5 2.5 2.5s2.5-1.121 2.5-2.5c0-1.378-1.121-2.5-2.5-2.5z" fill="#607d8b"/><path d="m12 0h-6.25c-1.519 0-2.75 1.231-2.75 2.75v18.5c0 1.519 1.231 2.75 2.75 2.75h6.25v-6h-4.25c-.965 0-1.75-.785-1.75-1.75v-4.75c0-.965.785-1.75 1.75-1.75h.75l.199-.1.941-1.063c.334-.373.81-.587 1.309-.587h1.051z" fill="#546d79"/><path d="m12 8h-1.051c-.499 0-.975.214-1.308.587l-.942 1.063-.199.1h-.75c-.965 0-1.75.785-1.75 1.75v4.75c0 .965.785 1.75 1.75 1.75h4.25v-2c-1.379 0-2.5-1.121-2.5-2.5 0-1.378 1.121-2.5 2.5-2.5z" fill="#dadada"/><path d="m12 11c-1.379 0-2.5 1.122-2.5 2.5 0 1.379 1.121 2.5 2.5 2.5z" fill="#546d79"/></svg>