<?xml version="1.0" encoding="iso-8859-1"?>
<!-- Generator: Adobe Illustrator 19.0.0, SVG Export Plug-In . SVG Version: 6.00 Build 0)  -->
<svg version="1.1" id="Capa_1" xmlns="http://www.w3.org/2000/svg" xmlns:xlink="http://www.w3.org/1999/xlink" x="0px" y="0px"
	 viewBox="0 0 512.001 512.001" style="enable-background:new 0 0 512.001 512.001;" xml:space="preserve">
<path style="fill:#CAE8F9;" d="M501.799,211.899l-61.899-20.4c-2.1-6.899-5.099-13.5-8.101-20.099l28.5-57.301
	c2.999-5.7,1.8-12.599-2.701-17.098L415,54.399c-4.499-4.499-11.4-5.7-17.1-2.699l-57.3,28.5c-6.601-3.001-13.2-6-20.099-8.101
	l-20.402-61.901C298.299,4.2,292.599,0,286,0h-60c-6.599,0-12.299,4.2-14.099,10.199L191.499,72.1
	C184.6,74.2,178,77.199,171.4,80.201l-57.299-28.5c-5.7-3.001-12.601-1.8-17.1,2.699L54.401,97
	c-4.501,4.499-5.7,11.398-2.701,17.098L80.2,171.4c-3.001,6.599-6,13.2-8.101,20.099l-61.899,20.4c-6,1.8-10.2,7.5-10.2,14.101v60
	c0,6.599,4.2,12.299,10.201,14.099l61.899,20.4c2.1,6.901,5.099,13.5,8.101,20.101l-28.5,57.299c-2.999,5.7-1.8,12.599,2.701,17.1
	L97,457.599c4.499,4.501,11.4,5.7,17.1,2.701l57.299-28.5c6.601,2.999,13.2,6,20.099,8.101L211.9,501.8
	c1.8,6,7.5,10.201,14.099,10.201h60c6.599,0,12.299-4.2,14.099-10.201l20.402-61.899c6.899-2.1,13.499-5.101,20.099-8.101
	l57.299,28.5c5.7,2.999,12.601,1.8,17.1-2.701L457.599,415c4.501-4.501,5.7-11.4,2.701-17.1l-28.5-57.3
	c3.001-6.601,6-13.2,8.101-20.101l61.899-20.4c6-1.8,10.201-7.5,10.201-14.099v-60C512,219.399,507.8,213.699,501.799,211.899z
	 M256,331c-41.353,0-75-33.647-75-75s33.647-75,75-75s75,33.647,75,75S297.353,331,256,331z"/>
<path style="fill:#B7E0F6;" d="M501.799,211.899l-61.899-20.4c-2.1-6.899-5.099-13.5-8.101-20.099l28.5-57.301
	c2.999-5.7,1.8-12.599-2.701-17.098L415,54.399c-4.499-4.499-11.4-5.7-17.1-2.699l-57.3,28.5c-6.601-3.001-13.2-6-20.099-8.101
	l-20.402-61.901C298.299,4.2,292.599,0,286,0h-30v181c41.353,0,75,33.647,75,75s-33.647,75-75,75v181h30
	c6.599,0,12.299-4.2,14.099-10.201l20.402-61.899c6.899-2.1,13.499-5.101,20.099-8.101l57.299,28.5c5.7,2.999,12.601,1.8,17.1-2.701
	l42.6-42.598c4.501-4.501,5.7-11.4,2.701-17.1l-28.5-57.3c3.001-6.601,6-13.2,8.101-20.101l61.899-20.4
	c6-1.8,10.201-7.5,10.201-14.099v-60C512,219.399,507.8,213.699,501.799,211.899z"/>
<path style="fill:#A4D9F5;" d="M256,121c-74.443,0-135,60.557-135,135s60.557,135,135,135s135-60.557,135-135S330.443,121,256,121z
	 M256,331c-41.353,0-75-33.647-75-75s33.647-75,75-75s75,33.647,75,75S297.353,331,256,331z"/>
<path style="fill:#81C8EE;" d="M331,256c0,41.353-33.647,75-75,75v60c74.443,0,135-60.557,135-135s-60.557-135-135-135v60
	C297.353,181,331,214.647,331,256z"/>
<g>
</g>
<g>
</g>
<g>
</g>
<g>
</g>
<g>
</g>
<g>
</g>
<g>
</g>
<g>
</g>
<g>
</g>
<g>
</g>
<g>
</g>
<g>
</g>
<g>
</g>
<g>
</g>
<g>
</g>
</svg>
